<?xml version="1.0" encoding="UTF-8" standalone="no"?>
<svg
   width="86"
   height="13"
   viewBox="0 0 86 13"
   fill="none"
   version="1.1"
   id="svg48"
   sodipodi:docname="logo-white.svg"
   inkscape:version="1.2.2 (b0a8486541, 2022-12-01)"
   xmlns:inkscape="http://www.inkscape.org/namespaces/inkscape"
   xmlns:sodipodi="http://sodipodi.sourceforge.net/DTD/sodipodi-0.dtd"
   xmlns="http://www.w3.org/2000/svg"
   xmlns:svg="http://www.w3.org/2000/svg">
  <defs
     id="defs52" />
  <sodipodi:namedview
     id="namedview50"
     pagecolor="#505050"
     bordercolor="#eeeeee"
     borderopacity="1"
     inkscape:showpageshadow="0"
     inkscape:pageopacity="0"
     inkscape:pagecheckerboard="0"
     inkscape:deskcolor="#505050"
     showgrid="false"
     inkscape:zoom="17.813953"
     inkscape:cx="43"
     inkscape:cy="6.5117493"
     inkscape:window-width="2560"
     inkscape:window-height="1322"
     inkscape:window-x="0"
     inkscape:window-y="32"
     inkscape:window-maximized="1"
     inkscape:current-layer="svg48" />
  <path
     d="M0.856 12L5.848 0.799999H8.408L13.416 12H10.696L6.6 2.112H7.624L3.512 12H0.856ZM3.352 9.6L4.04 7.632H9.8L10.504 9.6H3.352ZM17.298 12V0.799999H22.146C23.1487 0.799999 24.0127 0.965333 24.738 1.296C25.4633 1.616 26.0233 2.08 26.418 2.688C26.8127 3.296 27.01 4.02133 27.01 4.864C27.01 5.696 26.8127 6.416 26.418 7.024C26.0233 7.632 25.4633 8.10133 24.738 8.432C24.0127 8.752 23.1487 8.912 22.146 8.912H18.738L19.89 7.744V12H17.298ZM19.89 8.032L18.738 6.8H22.002C22.802 6.8 23.3993 6.62933 23.794 6.288C24.1887 5.94667 24.386 5.472 24.386 4.864C24.386 4.24533 24.1887 3.76533 23.794 3.424C23.3993 3.08267 22.802 2.912 22.002 2.912H18.738L19.89 1.68V8.032ZM31.5805 12V0.799999H36.4285C37.4312 0.799999 38.2952 0.965333 39.0205 1.296C39.7458 1.616 40.3058 2.08 40.7005 2.688C41.0952 3.296 41.2925 4.02133 41.2925 4.864C41.2925 5.696 41.0952 6.416 40.7005 7.024C40.3058 7.632 39.7458 8.10133 39.0205 8.432C38.2952 8.752 37.4312 8.912 36.4285 8.912H33.0205L34.1725 7.744V12H31.5805ZM34.1725 8.032L33.0205 6.8H36.2845C37.0845 6.8 37.6818 6.62933 38.0765 6.288C38.4712 5.94667 38.6685 5.472 38.6685 4.864C38.6685 4.24533 38.4712 3.76533 38.0765 3.424C37.6818 3.08267 37.0845 2.912 36.2845 2.912H33.0205L34.1725 1.68V8.032ZM51.4592 12.192C50.5739 12.192 49.7526 12.048 48.9953 11.76C48.2486 11.472 47.5979 11.0667 47.0432 10.544C46.4992 10.0213 46.0726 9.408 45.7632 8.704C45.4646 8 45.3152 7.232 45.3152 6.4C45.3152 5.568 45.4646 4.8 45.7632 4.096C46.0726 3.392 46.5046 2.77867 47.0592 2.256C47.6139 1.73333 48.2646 1.328 49.0113 1.04C49.7579 0.752 50.5686 0.608 51.4433 0.608C52.3286 0.608 53.1392 0.752 53.8752 1.04C54.6219 1.328 55.2673 1.73333 55.8113 2.256C56.3659 2.77867 56.7979 3.392 57.1073 4.096C57.4166 4.78933 57.5713 5.55733 57.5713 6.4C57.5713 7.232 57.4166 8.00533 57.1073 8.72C56.7979 9.424 56.3659 10.0373 55.8113 10.56C55.2673 11.072 54.6219 11.472 53.8752 11.76C53.1392 12.048 52.3339 12.192 51.4592 12.192ZM51.4433 9.984C51.9446 9.984 52.4033 9.89867 52.8193 9.728C53.2459 9.55733 53.6193 9.312 53.9392 8.992C54.2593 8.672 54.5046 8.29333 54.6753 7.856C54.8566 7.41867 54.9473 6.93333 54.9473 6.4C54.9473 5.86667 54.8566 5.38133 54.6753 4.944C54.5046 4.50667 54.2593 4.128 53.9392 3.808C53.6299 3.488 53.2619 3.24267 52.8352 3.072C52.4086 2.90133 51.9446 2.816 51.4433 2.816C50.9419 2.816 50.4779 2.90133 50.0512 3.072C49.6352 3.24267 49.2672 3.488 48.9472 3.808C48.6273 4.128 48.3766 4.50667 48.1953 4.944C48.0246 5.38133 47.9392 5.86667 47.9392 6.4C47.9392 6.92267 48.0246 7.408 48.1953 7.856C48.3766 8.29333 48.6219 8.672 48.9313 8.992C49.2513 9.312 49.6246 9.55733 50.0512 9.728C50.4779 9.89867 50.9419 9.984 51.4433 9.984ZM62.2393 12V0.799999H64.8313V9.888H70.4473V12H62.2393Z"
     fill="black"
     id="path44"
     style="fill:#ffffff" />
  <path
     d="M79.868 12.192C78.9827 12.192 78.1613 12.048 77.404 11.76C76.6573 11.472 76.0067 11.0667 75.452 10.544C74.908 10.0213 74.4813 9.408 74.172 8.704C73.8733 8 73.724 7.232 73.724 6.4C73.724 5.568 73.8733 4.8 74.172 4.096C74.4813 3.392 74.9133 2.77867 75.468 2.256C76.0227 1.73333 76.6733 1.328 77.42 1.04C78.1667 0.752 78.9773 0.608 79.852 0.608C80.7373 0.608 81.548 0.752 82.284 1.04C83.0307 1.328 83.676 1.73333 84.22 2.256C84.7747 2.77867 85.2067 3.392 85.516 4.096C85.8253 4.78933 85.98 5.55733 85.98 6.4C85.98 7.232 85.8253 8.00533 85.516 8.72C85.2067 9.424 84.7747 10.0373 84.22 10.56C83.676 11.072 83.0307 11.472 82.284 11.76C81.548 12.048 80.7427 12.192 79.868 12.192ZM79.852 9.984C80.3533 9.984 80.812 9.89867 81.228 9.728C81.6547 9.55733 82.028 9.312 82.348 8.992C82.668 8.672 82.9133 8.29333 83.084 7.856C83.2653 7.41867 83.356 6.93333 83.356 6.4C83.356 5.86667 83.2653 5.38133 83.084 4.944C82.9133 4.50667 82.668 4.128 82.348 3.808C82.0387 3.488 81.6707 3.24267 81.244 3.072C80.8173 2.90133 80.3533 2.816 79.852 2.816C79.3507 2.816 78.8867 2.90133 78.46 3.072C78.044 3.24267 77.676 3.488 77.356 3.808C77.036 4.128 76.7853 4.50667 76.604 4.944C76.4333 5.38133 76.348 5.86667 76.348 6.4C76.348 6.92267 76.4333 7.408 76.604 7.856C76.7853 8.29333 77.0307 8.672 77.34 8.992C77.66 9.312 78.0333 9.55733 78.46 9.728C78.8867 9.89867 79.3507 9.984 79.852 9.984Z"
     fill="#FEA612"
     id="path46" />
</svg>
